<?xml version="1.0" encoding="UTF-8"?>
<svg version="1.1" xmlns="http://www.w3.org/2000/svg" width="150" height="150">
<path d="M0 0 C49.5 0 99 0 150 0 C150 49.5 150 99 150 150 C100.5 150 51 150 0 150 C0 100.5 0 51 0 0 Z " fill="#0C161C" transform="translate(0,0)"/>
<path d="M0 0 C2.92423733 2.55863873 4.47754033 5.45965755 6.28515625 8.875 C6.89810547 10.02484375 7.51105469 11.1746875 8.14257812 12.359375 C8.78282019 13.57277524 9.42279138 14.78631844 10.0625 16 C11.32193596 18.3762225 12.58463423 20.75067831 13.84765625 23.125 C14.40461182 24.17945312 14.96156738 25.23390625 15.53540039 26.3203125 C17.00587673 29.10381747 17.00587673 29.10381747 19 32 C19.39013716 33.9896995 19.73202649 35.99019869 20 38 C20.66 38 21.32 38 22 38 C22.45850342 38.86165771 22.91700684 39.72331543 23.3894043 40.61108398 C25.11254302 43.84882546 26.83675922 47.08599214 28.5612793 50.32299805 C29.30342922 51.71639941 30.04529803 53.10995054 30.78686523 54.50366211 C31.8610524 56.52238067 32.93618944 58.54058998 34.01171875 60.55859375 C34.35886932 61.21072845 34.7060199 61.86286316 35.06369019 62.53475952 C37.37166032 66.8586344 39.74166824 71.14149681 42.19848633 75.38305664 C43 77 43 77 43 79 C30.4919311 79.76165507 30.4919311 79.76165507 26.95703125 77.95703125 C25.625 76.625 25.625 76.625 24 74 C24 73.34 24 72.68 24 72 C14.21017215 71.37855067 14.21017215 71.37855067 6 76 C5.34 76 4.68 76 4 76 C4.12109375 73.76953125 4.12109375 73.76953125 5 71 C7.72265625 68.76171875 7.72265625 68.76171875 11.0625 66.6875 C12.16722656 65.99011719 13.27195313 65.29273437 14.41015625 64.57421875 C15.26480469 64.05472656 16.11945313 63.53523438 17 63 C13.62179247 59.40484337 10.04421291 57.06495218 5.828125 54.5625 C5.22484375 54.046875 4.6215625 53.53125 4 53 C4 51.68 4 50.36 4 49 C11.68486945 49.1423124 16.05278359 52.33241007 22 57 C23.31112074 54.17133075 23.31112074 54.17133075 22.22265625 52.17578125 C21.83980469 51.56089844 21.45695312 50.94601563 21.0625 50.3125 C20.0415625 48.6728125 20.0415625 48.6728125 19 47 C18.09121094 47.10828125 18.09121094 47.10828125 17.1640625 47.21875 C11.75332802 47.8180929 6.56799764 48.03902395 1.12890625 47.7421875 C-1.54960183 48.06655729 -2.2400466 49.03993528 -4 51 C-4.66 51 -5.32 51 -6 51 C-4.63016497 54.16115776 -4.0109362 54.9927092 -1 57 C0.1577506 60.47325181 0.06866652 63.36067448 0 67 C-1.625 67.6875 -1.625 67.6875 -4 68 C-6 67 -8 66 -10 65 C-13.25100364 64.74803177 -13.25100364 64.74803177 -16 65 C-16 65.66 -16 66.32 -16 67 C-16.6084375 67.08507812 -17.216875 67.17015625 -17.84375 67.2578125 C-20.64130694 68.22073971 -21.1097317 69.31051861 -22.5 71.875 C-24.26095697 75.099455 -25.74306969 77.19745753 -29 79 C-32.234375 79.29296875 -32.234375 79.29296875 -35.75 79.1875 C-36.92046875 79.16042969 -38.0909375 79.13335937 -39.296875 79.10546875 C-40.18890625 79.07066406 -41.0809375 79.03585938 -42 79 C-40.61886465 74.45200153 -38.7582475 70.35637365 -36.5078125 66.1875 C-36.16580307 65.54523468 -35.82379364 64.90296936 -35.47142029 64.24124146 C-34.36058858 62.1583087 -33.24300382 60.07909064 -32.125 58 C-31.35119221 56.55337716 -30.57767562 55.10659852 -29.80444336 53.65966797 C-23.60360745 42.06981628 -17.3438042 30.51224496 -11 19 C-10.51853516 18.1248877 -10.03707031 17.24977539 -9.54101562 16.34814453 C-8.13413954 13.79313359 -6.72417015 11.23986482 -5.3125 8.6875 C-4.88976807 7.92131348 -4.46703613 7.15512695 -4.03149414 6.36572266 C-1.11751463 1.11751463 -1.11751463 1.11751463 0 0 Z " fill="#172E6A" transform="translate(75,34)"/>
<path d="M0 0 C0 0.99 0 1.98 0 3 C0.99 3.33 1.98 3.66 3 4 C4.53515625 6.546875 4.53515625 6.546875 6.0625 9.75 C6.56910156 10.79671875 7.07570312 11.8434375 7.59765625 12.921875 C8.47392366 14.84526975 9.30303373 16.79168959 10.05859375 18.765625 C10.89729202 21.14867852 10.89729202 21.14867852 13 23 C14.84854944 26.08091573 15 27.20027176 15 31 C15.66 31.33 16.32 31.66 17 32 C18.0703125 33.99609375 18.0703125 33.99609375 19.125 36.4375 C19.47820312 37.24058594 19.83140625 38.04367188 20.1953125 38.87109375 C21 41 21 41 21 43 C21.66 43 22.32 43 23 43 C23.680625 44.4540625 23.680625 44.4540625 24.375 45.9375 C25.65786221 49.07079582 25.65786221 49.07079582 28 50 C31 56.23076923 31 56.23076923 31 60 C31.66 60 32.32 60 33 60 C33 61.32 33 62.64 33 64 C34.485 64.495 34.485 64.495 36 65 C36.72045764 66.9812585 37.38001259 68.98504093 38 71 C38.556875 71.86625 39.11375 72.7325 39.6875 73.625 C41 76 41 76 40.9375 78.0625 C39.29471243 81.45759431 36.96982637 83.39039485 33.8125 85.375 C29.51289386 86.33046803 26.05168763 85.68820318 22 84 C19.75902178 82.31926634 17.79567672 80.54658386 15.82421875 78.55859375 C13.81443198 76.8414526 12.62737998 76.2211422 10 76 C9.05125 76.639375 8.1025 77.27875 7.125 77.9375 C3.64672696 80.23316021 2.0696027 80.46245485 -2 80 C-2.99 79.505 -2.99 79.505 -4 79 C-4 77.68 -4 76.36 -4 75 C-4.66 75 -5.32 75 -6 75 C-5.1875 72.0625 -5.1875 72.0625 -4 69 C-3.01 68.67 -2.02 68.34 -1 68 C-1 67.34 -1 66.68 -1 66 C0.29233607 64.62689293 1.62437146 63.28965176 3 62 C0.525 62.495 0.525 62.495 -2 63 C-2.495 64.485 -2.495 64.485 -3 66 C-3.99 66.33 -4.98 66.66 -6 67 C-6.09796875 66.38511719 -6.1959375 65.77023438 -6.296875 65.13671875 C-7.07932607 60.04255188 -7.07932607 60.04255188 -10.125 56.125 C-10.74375 55.75375 -11.3625 55.3825 -12 55 C-12 52 -12 52 -9.96875 49.82421875 C-6.20083326 47.50893307 -3.88604162 47.62390021 0.5 47.8125 C4.87087926 47.97422253 8.74428769 48.07211214 13 47 C13.86941494 48.23944276 14.72005457 49.49207059 15.5625 50.75 C16.03816406 51.44609375 16.51382813 52.1421875 17.00390625 52.859375 C18 55 18 55 17.65234375 57.265625 C17.32943359 58.12414062 17.32943359 58.12414062 17 59 C10.36170213 55.29787234 10.36170213 55.29787234 7.875 53.25 C5.45972341 51.63981561 3.85130794 51.92688954 1 52 C0.01 51.34 -0.98 50.68 -2 50 C-0.6376623 54.77638879 1.37245914 56.21852339 5.625 58.625 C8.6640625 60.3515625 8.6640625 60.3515625 11 62 C11 62.99 11 63.98 11 65 C8.01703883 67.1911042 4.88572294 69.04480678 1.72265625 70.96484375 C-1.11712513 72.71357534 -1.11712513 72.71357534 -1.87890625 75.25390625 C-1.93884766 76.11822266 -1.93884766 76.11822266 -2 77 C-1.5153125 76.6390625 -1.030625 76.278125 -0.53125 75.90625 C5.53230436 71.70840468 9.10069525 71.48428371 16.375 72.25 C18.65439078 73.30202651 18.98271101 74.76196423 20 77 C23.63719605 79.42479736 25.85703482 79.38662577 30.1875 79.625 C31.45980469 79.69976562 32.73210937 79.77453125 34.04296875 79.8515625 C35.50669922 79.92503906 35.50669922 79.92503906 37 80 C34.49324124 75.2484851 31.98464358 70.49794743 29.47436523 65.74829102 C28.62132445 64.13364713 27.76877954 62.51874116 26.91674805 60.90356445 C25.68930436 58.57693886 24.46005821 56.25127339 23.23046875 53.92578125 C22.85222458 53.20787918 22.47398041 52.48997711 22.08427429 51.75032043 C20.5342809 48.82233843 18.97148819 45.95361654 17.2355957 43.12963867 C16 41 16 41 16 39 C14.515 39.495 14.515 39.495 13 40 C12.95359375 39.06929687 12.9071875 38.13859375 12.859375 37.1796875 C12.0546895 31.58346563 9.00960369 26.96744742 6.25 22.125 C5.7240625 21.18269531 5.198125 20.24039063 4.65625 19.26953125 C3.6159863 17.40787121 2.57116468 15.54874968 1.52148438 13.69238281 C-0.67416119 9.80702027 -2.83728563 5.90375985 -5 2 C-8.20583777 4.71239384 -9.87892289 8.22088974 -11.7734375 11.88671875 C-12.13358444 12.57228851 -12.49373138 13.25785828 -12.86479187 13.96420288 C-13.63777777 15.43696415 -14.40828188 16.91103016 -15.17654419 18.38626099 C-17.19690206 22.26569176 -19.2347315 26.13594344 -21.26953125 30.0078125 C-21.67479538 30.78030838 -22.08005951 31.55280426 -22.49760437 32.34870911 C-25.96382967 38.95054054 -29.49613627 45.5141471 -33.0625 52.0625 C-38.10970439 61.3396974 -43.0848019 70.65223308 -48 80 C-45.9367016 79.93958131 -43.87422586 79.85068362 -41.8125 79.75 C-40.66394531 79.70359375 -39.51539063 79.6571875 -38.33203125 79.609375 C-33.77152433 78.77533153 -31.29969484 76.83223456 -28.63671875 73.078125 C-28.32347656 72.47484375 -28.01023437 71.8715625 -27.6875 71.25 C-27.130625 70.1775 -26.57375 69.105 -26 68 C-24.68 68.33 -23.36 68.66 -22 69 C-23.63476994 74.82386793 -25.67834996 78.83763803 -30.40625 82.71875 C-36.2491468 85.60500023 -43.92111549 85.02629484 -50 83 C-50.9060219 72.30894163 -46.6102268 62.93480564 -41 54 C-40.34 54 -39.68 54 -39 54 C-39 53.34 -39 52.68 -39 52 C-38.34 52 -37.68 52 -37 52 C-37.12375 51.030625 -37.2475 50.06125 -37.375 49.0625 C-37.40260138 44.49907261 -35.11926086 41.84558052 -32.51953125 38.265625 C-30.70040331 35.55330057 -29.74094689 32.89130297 -28.69921875 29.8203125 C-27.58679958 26.92429388 -25.75064828 24.55094463 -24 22 C-21.36804532 17.36239148 -18.84970087 12.66154378 -16.421875 7.9140625 C-15.65617187 6.44066406 -15.65617187 6.44066406 -14.875 4.9375 C-14.41867188 4.03902344 -13.96234375 3.14054687 -13.4921875 2.21484375 C-10.02849274 -2.9262948 -5.2663784 -2.6331892 0 0 Z " fill="#072E4A" transform="translate(81,33)"/>
<path d="M0 0 C2.93374479 2.56633398 4.49955433 5.4882432 6.3203125 8.91015625 C7.24650391 10.64168945 7.24650391 10.64168945 8.19140625 12.40820312 C8.83603374 13.62625116 9.4805639 14.8443507 10.125 16.0625 C10.77685392 17.28476657 11.42919261 18.50677473 12.08203125 19.72851562 C19.21314484 33.10122234 19.21314484 33.10122234 18 39 C16.45703125 41.23828125 16.45703125 41.23828125 14 43 C11.36283246 43.27070263 9.00214344 43.36128718 6.375 43.3125 C-2.5372152 43.46741581 -7.72546567 46.72546567 -14 53 C-13.14535156 53.51949219 -12.29070313 54.03898437 -11.41015625 54.57421875 C-10.30542969 55.27160156 -9.20070312 55.96898437 -8.0625 56.6875 C-6.96035156 57.37199219 -5.85820313 58.05648437 -4.72265625 58.76171875 C-2 61 -2 61 -1.12109375 63.76953125 C-1.06115234 64.87361328 -1.06115234 64.87361328 -1 66 C-5.55564061 64.41467191 -9.31475769 62.00996919 -13.3125 59.375 C-13.95767578 58.95476562 -14.60285156 58.53453125 -15.26757812 58.1015625 C-16.84760724 57.07161759 -18.42416047 56.03634372 -20 55 C-19.96484375 52.828125 -19.96484375 52.828125 -19 50 C-16.73096564 47.92189009 -14.17545053 46.3616814 -11.5625 44.75 C-10.86833984 44.30398437 -10.17417969 43.85796875 -9.45898438 43.3984375 C-4.21570649 40.04842452 -1.41875362 38.88113419 5 39 C3.68 36.36 2.36 33.72 1 31 C0.01 31.99 -0.98 32.98 -2 34 C-2 34.99 -2 35.98 -2 37 C-7.25714286 41 -7.25714286 41 -10 41 C-9.67 38.69 -9.34 36.38 -9 34 C-8.34 34 -7.68 34 -7 34 C-5.02 30.37 -3.04 26.74 -1 23 C-0.01 23 0.98 23 2 23 C4.64 27.95 7.28 32.9 10 38 C11.98 37.505 11.98 37.505 14 37 C13.45876996 32.65623095 12.43490754 29.45642563 10.3125 25.63671875 C9.77882812 24.66798828 9.24515625 23.69925781 8.6953125 22.70117188 C8.13585937 21.70666016 7.57640625 20.71214844 7 19.6875 C6.44054687 18.67365234 5.88109375 17.65980469 5.3046875 16.61523438 C3.02641151 12.04207747 3.02641151 12.04207747 0 8 C-0.36125977 8.7027002 -0.72251953 9.40540039 -1.09472656 10.12939453 C-7.85497542 23.26340928 -14.66956914 36.35456608 -21.78320312 49.30175781 C-26.28000242 57.48690878 -30.6576839 65.73205471 -35 74 C-31.61485047 73.94017339 -31.61485047 73.94017339 -28 73 C-25.88013617 70.53821502 -25.88013617 70.53821502 -24.5625 67.4375 C-24.06878906 66.42558594 -23.57507813 65.41367188 -23.06640625 64.37109375 C-22.71449219 63.58863281 -22.36257812 62.80617187 -22 62 C-22.66 61.67 -23.32 61.34 -24 61 C-22.1875 59.4375 -22.1875 59.4375 -20 58 C-18.515 58.495 -18.515 58.495 -17 59 C-17 61.31 -17 63.62 -17 66 C-17.66 66 -18.32 66 -19 66 C-19.30292969 66.60328125 -19.60585938 67.2065625 -19.91796875 67.828125 C-20.33691406 68.62734375 -20.75585938 69.4265625 -21.1875 70.25 C-21.79658203 71.43335937 -21.79658203 71.43335937 -22.41796875 72.640625 C-24.34394559 75.51294602 -26.06025651 77.16266032 -29 79 C-32.33203125 79.390625 -32.33203125 79.390625 -35.8125 79.25 C-36.97394531 79.21390625 -38.13539062 79.1778125 -39.33203125 79.140625 C-40.21246094 79.09421875 -41.09289063 79.0478125 -42 79 C-40.61886465 74.45200153 -38.7582475 70.35637365 -36.5078125 66.1875 C-36.16580307 65.54523468 -35.82379364 64.90296936 -35.47142029 64.24124146 C-34.36058858 62.1583087 -33.24300382 60.07909064 -32.125 58 C-31.35119221 56.55337716 -30.57767562 55.10659852 -29.80444336 53.65966797 C-23.60360745 42.06981628 -17.3438042 30.51224496 -11 19 C-10.51853516 18.1248877 -10.03707031 17.24977539 -9.54101562 16.34814453 C-8.13413954 13.79313359 -6.72417015 11.23986482 -5.3125 8.6875 C-4.88976807 7.92131348 -4.46703613 7.15512695 -4.03149414 6.36572266 C-1.11751463 1.11751463 -1.11751463 1.11751463 0 0 Z " fill="#2AC2E6" transform="translate(75,34)"/>
<path d="M0 0 C0.66 0 1.32 0 2 0 C2.45850342 0.86165771 2.91700684 1.72331543 3.3894043 2.61108398 C5.11254302 5.84882546 6.83675922 9.08599214 8.5612793 12.32299805 C9.30342922 13.71639941 10.04529803 15.10995054 10.78686523 16.50366211 C11.8610524 18.52238067 12.93618944 20.54058998 14.01171875 22.55859375 C14.35886932 23.21072845 14.7060199 23.86286316 15.06369019 24.53475952 C17.37166032 28.8586344 19.74166824 33.14149681 22.19848633 37.38305664 C23 39 23 39 23 41 C10.4919311 41.76165507 10.4919311 41.76165507 6.95703125 39.95703125 C5.625 38.625 5.625 38.625 4 36 C4 35.34 4 34.68 4 34 C-5.78982785 33.37855067 -5.78982785 33.37855067 -14 38 C-14.66 38 -15.32 38 -16 38 C-15.87890625 35.76953125 -15.87890625 35.76953125 -15 33 C-12.27734375 30.76171875 -12.27734375 30.76171875 -8.9375 28.6875 C-7.83277344 27.99011719 -6.72804688 27.29273437 -5.58984375 26.57421875 C-4.30787109 25.79498047 -4.30787109 25.79498047 -3 25 C-6.37820753 21.40484337 -9.95578709 19.06495218 -14.171875 16.5625 C-14.77515625 16.046875 -15.3784375 15.53125 -16 15 C-16 13.68 -16 12.36 -16 11 C-8.31513055 11.1423124 -3.94721641 14.33241007 2 19 C2.33 18.01 2.66 17.02 3 16 C2.02389928 14.2430187 1.04206283 12.48821126 0 10.76953125 C-1.28844946 8.48957968 -1.85856432 6.61656003 -2 4 C-1.0625 1.6875 -1.0625 1.6875 0 0 Z " fill="#074467" transform="translate(95,72)"/>
<path d="M0 0 C2.81347946 2.23423369 4.82635216 4.58575173 6 8 C5.625 10.25 5.625 10.25 5 12 C-1.63829787 8.29787234 -1.63829787 8.29787234 -4.125 6.25 C-6.54027659 4.63981561 -8.14869206 4.92688954 -11 5 C-11.99 4.34 -12.98 3.68 -14 3 C-12.6376623 7.77638879 -10.62754086 9.21852339 -6.375 11.625 C-3.3359375 13.3515625 -3.3359375 13.3515625 -1 15 C-1 15.99 -1 16.98 -1 18 C-3.98296117 20.1911042 -7.11427706 22.04480678 -10.27734375 23.96484375 C-13.11712513 25.71357534 -13.11712513 25.71357534 -13.87890625 28.25390625 C-13.91886719 28.83011719 -13.95882812 29.40632813 -14 30 C-8.98464948 29.67039784 -8.98464948 29.67039784 -5 27 C-1.2268867 26.30697919 1.10297311 26.41685814 4.35546875 28.53125 C5.92390583 29.77985897 7.46844646 31.05923252 8.984375 32.37109375 C11.90313694 34.72986067 14.36280431 35.13877726 18 35.125 C19.0209375 35.12886719 19.0209375 35.12886719 20.0625 35.1328125 C22.21874781 35.06631126 22.21874781 35.06631126 25 34 C25.36522269 27.41033462 25.36522269 27.41033462 22 22 C20.85478431 19.04410545 19.91421893 16.03442877 19 13 C19.66 13 20.32 13 21 13 C21 14.32 21 15.64 21 17 C21.99 17.33 22.98 17.66 24 18 C24.72045764 19.9812585 25.38001259 21.98504093 26 24 C26.556875 24.86625 27.11375 25.7325 27.6875 26.625 C29 29 29 29 28.9375 31.0625 C27.29471243 34.45759431 24.96982637 36.39039485 21.8125 38.375 C17.51289386 39.33046803 14.05168763 38.68820318 10 37 C7.75902178 35.31926634 5.79567672 33.54658386 3.82421875 31.55859375 C1.81443198 29.8414526 0.62737998 29.2211422 -2 29 C-2.94875 29.639375 -3.8975 30.27875 -4.875 30.9375 C-8.35327304 33.23316021 -9.9303973 33.46245485 -14 33 C-14.66 32.67 -15.32 32.34 -16 32 C-16 30.68 -16 29.36 -16 28 C-16.66 28 -17.32 28 -18 28 C-17.1875 25.0625 -17.1875 25.0625 -16 22 C-15.01 21.67 -14.02 21.34 -13 21 C-13 20.34 -13 19.68 -13 19 C-11.70766393 17.62689293 -10.37562854 16.28965176 -9 15 C-10.65 15.33 -12.3 15.66 -14 16 C-14.33 16.99 -14.66 17.98 -15 19 C-15.99 19.33 -16.98 19.66 -18 20 C-18.14695312 19.07767578 -18.14695312 19.07767578 -18.296875 18.13671875 C-19.07932607 13.04255188 -19.07932607 13.04255188 -22.125 9.125 C-22.74375 8.75375 -23.3625 8.3825 -24 8 C-24 5 -24 5 -21.97265625 2.82421875 C-18.18899743 0.50231511 -15.84001727 0.6245077 -11.4375 0.8125 C-6.50499508 1.09087529 -6.50499508 1.09087529 -1.66796875 0.40625 C-0.84232422 0.20515625 -0.84232422 0.20515625 0 0 Z " fill="#082338" transform="translate(93,80)"/>
<path d="M0 0 C5.57923505 5.09408418 10.24825683 12.79125514 10.625 20.5 C9.89621909 24.58117311 9.29244195 25.56760298 6 28 C3.36283246 28.27070263 1.00214344 28.36128718 -1.625 28.3125 C-10.5372152 28.46741581 -15.72546567 31.72546567 -22 38 C-21.14535156 38.51949219 -20.29070313 39.03898437 -19.41015625 39.57421875 C-18.30542969 40.27160156 -17.20070313 40.96898437 -16.0625 41.6875 C-14.96035156 42.37199219 -13.85820313 43.05648437 -12.72265625 43.76171875 C-10 46 -10 46 -9.12109375 48.76953125 C-9.08113281 49.50558594 -9.04117188 50.24164063 -9 51 C-13.55564061 49.41467191 -17.31475769 47.00996919 -21.3125 44.375 C-21.95767578 43.95476562 -22.60285156 43.53453125 -23.26757812 43.1015625 C-24.84760724 42.07161759 -26.42416047 41.03634372 -28 40 C-27.96484375 37.828125 -27.96484375 37.828125 -27 35 C-24.73096564 32.92189009 -22.17545053 31.3616814 -19.5625 29.75 C-18.86833984 29.30398437 -18.17417969 28.85796875 -17.45898438 28.3984375 C-12.21570649 25.04842452 -9.41875362 23.88113419 -3 24 C-4.32 21.36 -5.64 18.72 -7 16 C-7.99 16.99 -8.98 17.98 -10 19 C-10 19.99 -10 20.98 -10 22 C-15.25714286 26 -15.25714286 26 -18 26 C-17.67 23.69 -17.34 21.38 -17 19 C-16.34 19 -15.68 19 -15 19 C-13.02 15.37 -11.04 11.74 -9 8 C-8.01 8 -7.02 8 -6 8 C-3.36 12.95 -0.72 17.9 2 23 C3.32 22.67 4.64 22.34 6 22 C5.45318976 16.99399078 3.75859667 13.02818933 1.4375 8.625 C1.10814453 7.98433594 0.77878906 7.34367187 0.43945312 6.68359375 C-0.36639482 5.11861368 -1.18218493 3.55875979 -2 2 C-1.34 2 -0.68 2 0 2 C0 1.34 0 0.68 0 0 Z " fill="#A05DE8" transform="translate(83,49)"/>
<path d="M0 0 C0.98995103 2.67286779 1.04574968 3.85219333 0.1875 6.625 C-1 9 -1 9 -3 11 C-3.165 11.680625 -3.33 12.36125 -3.5 13.0625 C-3.665 13.701875 -3.83 14.34125 -4 15 C-4.99 15.495 -4.99 15.495 -6 16 C-7.03485877 18.31808364 -8.0355414 20.65175298 -9 23 C-9.33 23.33 -9.66 23.66 -10 24 C-10.08116141 25.44568767 -10.1392661 26.89268326 -10.1875 28.33984375 C-10.7996838 34.96908791 -13.70704737 39.88242164 -17 45.5625 C-18.18172553 47.66755578 -19.3627101 49.77302768 -20.54296875 51.87890625 C-21.12739746 52.90902832 -21.71182617 53.93915039 -22.31396484 55.00048828 C-24.72641952 59.29232409 -27.02680678 63.63970961 -29.3125 68 C-30.03763355 69.37506691 -30.76287947 70.75007457 -31.48828125 72.125 C-31.98714844 73.07375 -32.48601563 74.0225 -33 75 C-30.9367016 74.93958131 -28.87422586 74.85068362 -26.8125 74.75 C-25.66394531 74.70359375 -24.51539063 74.6571875 -23.33203125 74.609375 C-18.77152433 73.77533153 -16.29969484 71.83223456 -13.63671875 68.078125 C-13.32347656 67.47484375 -13.01023437 66.8715625 -12.6875 66.25 C-12.130625 65.1775 -11.57375 64.105 -11 63 C-9.68 63.33 -8.36 63.66 -7 64 C-8.63476994 69.82386793 -10.67834996 73.83763803 -15.40625 77.71875 C-21.2491468 80.60500023 -28.92111549 80.02629484 -35 78 C-35.9060219 67.30894163 -31.6102268 57.93480564 -26 49 C-25.34 49 -24.68 49 -24 49 C-24 48.34 -24 47.68 -24 47 C-23.34 47 -22.68 47 -22 47 C-22.12375 46.030625 -22.2475 45.06125 -22.375 44.0625 C-22.40260138 39.49907261 -20.11926086 36.84558052 -17.51953125 33.265625 C-15.70040331 30.55330057 -14.74094689 27.89130297 -13.69921875 24.8203125 C-12.58679958 21.92429388 -10.75064828 19.55094463 -9 17 C-5.82466908 11.42645862 -2.806194 5.76828766 0 0 Z " fill="#0B2E3F" transform="translate(66,38)"/>
<path d="M0 0 C3.64007082 4.66493857 6.38281339 9.77589419 9.25 14.9375 C10.10078125 16.4215332 10.10078125 16.4215332 10.96875 17.93554688 C11.49984375 18.89396484 12.0309375 19.85238281 12.578125 20.83984375 C13.06700195 21.70988037 13.55587891 22.57991699 14.05957031 23.47631836 C15.16352111 26.43881561 14.89385233 28.0118932 14 31 C12.68 31.33 11.36 31.66 10 32 C7.03 26.72 4.06 21.44 1 16 C-2.66649672 20.5831209 -5.51291239 24.72840726 -7.9375 30.0625 C-10.11987019 34.04211624 -12.59509884 37.53169961 -17 39 C-16.54803755 37.39402675 -16.08817673 35.79027492 -15.625 34.1875 C-15.36976562 33.29417969 -15.11453125 32.40085938 -14.8515625 31.48046875 C-14 29 -14 29 -12 26 C-11.73445313 24.8140625 -11.46890625 23.628125 -11.1953125 22.40625 C-9.99298068 17.26751675 -7.50987628 13.03169197 -4.875 8.5 C-4.17310547 7.26636719 -4.17310547 7.26636719 -3.45703125 6.0078125 C-2.31313556 4.00015884 -1.16076881 1.99792935 0 0 Z " fill="#243464" transform="translate(75,41)"/>
<path d="M0 0 C0.66 0 1.32 0 2 0 C2.68775513 1.29248657 2.68775513 1.29248657 3.3894043 2.61108398 C5.11254302 5.84882546 6.83675922 9.08599214 8.5612793 12.32299805 C9.30342922 13.71639941 10.04529803 15.10995054 10.78686523 16.50366211 C11.8610524 18.52238067 12.93618944 20.54058998 14.01171875 22.55859375 C14.35886932 23.21072845 14.7060199 23.86286316 15.06369019 24.53475952 C17.37166032 28.8586344 19.74166824 33.14149681 22.19848633 37.38305664 C23 39 23 39 23 41 C10.1927474 41.7798733 10.1927474 41.7798733 5.75 38.875 C3.97117923 35.95265159 2.8469164 33.31067321 2 30 C2.99 29.34 3.98 28.68 5 28 C6.32 28.66 7.64 29.32 9 30 C9 31.65 9 33.3 9 35 C11.31 35.66 13.62 36.32 16 37 C11.58172735 28.0601704 7.0956432 19.1943938 2.25 10.4765625 C1 8 1 8 1 6 C0.01 6 -0.98 6 -2 6 C-1.34 4.02 -0.68 2.04 0 0 Z " fill="#0F8AE6" transform="translate(95,72)"/>
<path d="M0 0 C1.17625191 -0.01226624 1.17625191 -0.01226624 2.37626648 -0.02478027 C4.97406255 -0.04960937 7.57180386 -0.0661483 10.16967773 -0.08056641 C11.05911512 -0.08589008 11.94855251 -0.09121376 12.86494255 -0.09669876 C17.57727064 -0.12342584 22.28957233 -0.14279789 27.00195312 -0.15722656 C30.89054023 -0.17053836 34.77859917 -0.19834028 38.66699219 -0.23925781 C43.37136746 -0.28875752 48.07526551 -0.31336938 52.77989006 -0.32045364 C54.5663467 -0.32713909 56.35279383 -0.3422901 58.13910103 -0.36634445 C77.6067967 -0.61343484 77.6067967 -0.61343484 85.95191956 6.63589478 C88.9874817 9.87317989 89.9788242 12.82560915 90.29077148 17.19287109 C88.29077148 15.19287109 88.29077148 15.19287109 86.60327148 11.81787109 C83.8163206 6.78878679 79.66909696 4.98564625 74.29077148 3.19287109 C71.76799915 3.08670689 69.27244528 3.03563874 66.74926758 3.03173828 C65.98300049 3.02677338 65.2167334 3.02180847 64.42724609 3.01669312 C61.88955792 3.00207791 59.35193236 2.99526884 56.81420898 2.98974609 C55.04643757 2.98399196 53.27866617 2.97823426 51.51089478 2.97247314 C47.80031036 2.9619635 44.0897476 2.9561213 40.37915039 2.95263672 C35.64151747 2.94716695 30.90417412 2.9231714 26.1666317 2.89466476 C22.51188342 2.87596649 18.8572037 2.87082886 15.20241165 2.86930084 C13.45703176 2.86628752 11.7116527 2.85830392 9.96632004 2.84511566 C-3.94057697 2.17606534 -3.94057697 2.17606534 -16.27041626 7.50335693 C-21.08831525 12.76128621 -21.94479006 18.68779174 -22.33422852 25.56787109 C-22.40899414 26.81310547 -22.48375977 28.05833984 -22.56079102 29.34130859 C-22.60977539 30.28232422 -22.65875977 31.22333984 -22.70922852 32.19287109 C-23.03922852 32.19287109 -23.36922852 32.19287109 -23.70922852 32.19287109 C-24.62885204 14.20912208 -24.62885204 14.20912208 -20.34204102 8.77099609 C-13.87371458 2.51931217 -9.04197685 0.05203325 0 0 Z " fill="#213541" transform="translate(41.709228515625,16.80712890625)"/>
<path d="M0 0 C0.66 0.33 1.32 0.66 2 1 C2 1.99 2 2.98 2 4 C2.99 4.33 3.98 4.66 5 5 C5.87890625 7.3984375 5.87890625 7.3984375 6.5625 10.375 C7.38345773 13.8907399 7.97116154 15.95674231 10 19 C10 20.32 10 21.64 10 23 C9.34 23 8.68 23 8 23 C2.555 13.1 2.555 13.1 -3 3 C-6.16320012 6.16320012 -7.97580144 9.38260254 -10.01171875 13.29296875 C-10.38480667 13.99899734 -10.75789459 14.70502594 -11.14228821 15.43244934 C-12.32921392 17.68144391 -13.50843614 19.93437552 -14.6875 22.1875 C-15.49233338 23.71576093 -16.29766624 25.24375894 -17.10351562 26.77148438 C-19.07481281 30.51130002 -21.03921221 34.25466434 -23 38 C-23.33 38 -23.66 38 -24 38 C-24.40983607 29.80327869 -24.40983607 29.80327869 -21 26 C-20.28837557 24.35202764 -19.60968047 22.68834592 -19 21 C-18.34 21 -17.68 21 -17 21 C-16.87625 20.21625 -16.7525 19.4325 -16.625 18.625 C-16 16 -16 16 -14 14 C-13.41574656 11.51584095 -13.04782343 9.02953103 -12.66015625 6.5078125 C-11.91781535 3.68779558 -10.97957145 2.12744305 -9 0 C-5.49142603 -1.16952466 -3.57280503 -0.76017128 0 0 Z " fill="#0E3E52" transform="translate(79,32)"/>
<path d="M0 0 C2.9882675 2.58323124 4.49429547 5.55535237 6.25 9.0625 C6.79140625 10.12597656 7.3328125 11.18945312 7.890625 12.28515625 C8.25671875 13.18105469 8.6228125 14.07695313 9 15 C8.67 15.66 8.34 16.32 8 17 C4.46766245 15.82255415 4.13691925 15.04394359 2.3125 11.9375 C1.87550781 11.20402344 1.43851563 10.47054687 0.98828125 9.71484375 C0.49908203 8.86599609 0.49908203 8.86599609 0 8 C-0.4031543 8.79696289 -0.80630859 9.59392578 -1.22167969 10.41503906 C-2.72884741 13.38522428 -4.24291419 16.35167739 -5.76171875 19.31591797 C-6.41619 20.59672854 -7.06792328 21.87894217 -7.71679688 23.16259766 C-8.65289067 25.01324934 -9.59889168 26.8585411 -10.546875 28.703125 C-11.39523926 30.36843262 -11.39523926 30.36843262 -12.26074219 32.06738281 C-14.63648665 36.07320012 -16.53810507 38.51270169 -21 40 C-19.55807604 35.19791134 -17.51658229 30.88748268 -15.15625 26.484375 C-14.78649048 25.78733459 -14.41673096 25.09029419 -14.0357666 24.37213135 C-13.25802071 22.90867733 -12.4779931 21.44643387 -11.69580078 19.98535156 C-10.4979305 17.74613142 -9.30904005 15.5023103 -8.12109375 13.2578125 C-7.36250749 11.83305191 -6.60341072 10.40856299 -5.84375 8.984375 C-5.48849243 8.31355896 -5.13323486 7.64274292 -4.76721191 6.95159912 C-3.35526015 4.32376687 -2.12182933 2.12182933 0 0 Z " fill="#2ADAE7" transform="translate(75,34)"/>
<path d="M0 0 C0.66 0 1.32 0 2 0 C1.25141467 4.491512 0.43760011 7.6971749 -3 10.8125 C-5.58526288 13.64013127 -6.14911562 16.31283434 -7 20 C-7.66 20 -8.32 20 -9 20 C-9.33 22.64 -9.66 25.28 -10 28 C-7.77009273 27.93965068 -5.5409464 27.8507725 -3.3125 27.75 C-2.07113281 27.70359375 -0.82976563 27.6571875 0.44921875 27.609375 C5.16833311 26.79949399 7.61359443 24.95447433 10.36328125 21.078125 C10.67652344 20.47484375 10.98976563 19.8715625 11.3125 19.25 C11.869375 18.1775 12.42625 17.105 13 16 C14.32 16.33 15.64 16.66 17 17 C15.36523006 22.82386793 13.32165004 26.83763803 8.59375 30.71875 C2.7508532 33.60500023 -4.92111549 33.02629484 -11 31 C-11.9060219 20.30894163 -7.6102268 10.93480564 -2 2 C-1.34 2 -0.68 2 0 2 C0 1.34 0 0.68 0 0 Z " fill="#131438" transform="translate(42,85)"/>
<path d="M0 0 C2.77092074 3.76682623 2.77092074 3.76682623 3.59765625 6.171875 C3.22265625 8.421875 3.22265625 8.421875 2.59765625 10.171875 C-4.04064162 6.46974734 -4.04064162 6.46974734 -6.52734375 4.421875 C-8.94262034 2.81169061 -10.55103581 3.09876454 -13.40234375 3.171875 C-14.39234375 2.511875 -15.38234375 1.851875 -16.40234375 1.171875 C-15.04000605 5.94826379 -13.02988461 7.39039839 -8.77734375 9.796875 C-5.73828125 11.5234375 -5.73828125 11.5234375 -3.40234375 13.171875 C-3.40234375 14.161875 -3.40234375 15.151875 -3.40234375 16.171875 C-5.51953125 17.99609375 -5.51953125 17.99609375 -8.27734375 19.859375 C-9.18226562 20.48199219 -10.0871875 21.10460937 -11.01953125 21.74609375 C-13.40234375 23.171875 -13.40234375 23.171875 -15.40234375 23.171875 C-14.38344436 20.89894559 -13.59331744 19.34162939 -11.71484375 17.671875 C-11.28171875 17.176875 -10.84859375 16.681875 -10.40234375 16.171875 C-10.62992106 14.00888289 -10.62992106 14.00888289 -11.40234375 12.171875 C-12.02109375 12.089375 -12.63984375 12.006875 -13.27734375 11.921875 C-15.40234375 11.171875 -15.40234375 11.171875 -16.65234375 9.546875 C-17.65022123 6.38692965 -17.44843358 3.46729802 -17.40234375 0.171875 C-14.9878805 -0.27257843 -12.57508413 -0.68403784 -10.15234375 -1.078125 C-9.47042969 -1.20703125 -8.78851563 -1.3359375 -8.0859375 -1.46875 C-4.54271773 -2.01915307 -2.91371908 -2.21726915 0 0 Z " fill="#07415F" transform="translate(95.40234375,81.828125)"/>
<path d="M0 0 C0.33 0 0.66 0 1 0 C1.2226746 1.43534841 1.42761906 2.87345525 1.625 4.3125 C1.74101563 5.11300781 1.85703125 5.91351563 1.9765625 6.73828125 C2 9 2 9 0 12 C0.99 12.33 1.98 12.66 3 13 C-3.1128739 16.57826765 -8.79988948 16.14104114 -15.671875 15.8125 C-18.96400684 15.66976364 -18.96400684 15.66976364 -20.828125 17.5 C-21.21484375 17.995 -21.6015625 18.49 -22 19 C-22.66 19 -23.32 19 -24 19 C-23.34 20.65 -22.68 22.3 -22 24 C-23.98 23.34 -25.96 22.68 -28 22 C-28.33 22.66 -28.66 23.32 -29 24 C-30.32 22.68 -31.64 21.36 -33 20 C-31.71802734 19.15115234 -31.71802734 19.15115234 -30.41015625 18.28515625 C-29.2942305 17.54433159 -28.17834728 16.80344286 -27.0625 16.0625 C-26.49853516 15.68931641 -25.93457031 15.31613281 -25.35351562 14.93164062 C-22.53966389 13.14034283 -22.53966389 13.14034283 -20 11 C-16.63331804 10.79664337 -13.27390068 10.65326821 -9.90234375 10.5703125 C-5.73912651 10.41321419 -5.73912651 10.41321419 -2.03515625 8.69140625 C-0.37177594 5.9735056 -0.29453607 3.12208238 0 0 Z " fill="#262660" transform="translate(93,66)"/>
<path d="M0 0 C4.45617652 1.59331742 8.31583472 3.82230176 12.3125 6.3125 C13.28026367 6.88000977 13.28026367 6.88000977 14.26757812 7.45898438 C16.11328125 8.61328125 16.11328125 8.61328125 19 11 C19.40844727 13.46826172 19.40844727 13.46826172 19 16 C17.47119141 17.57739258 17.47119141 17.57739258 15.3515625 18.89453125 C14.59359375 19.37470703 13.835625 19.85488281 13.0546875 20.34960938 C12.25289062 20.83236328 11.45109375 21.31511719 10.625 21.8125 C9.8309375 22.31458984 9.036875 22.81667969 8.21875 23.33398438 C2.33317389 27 2.33317389 27 0 27 C0.12109375 24.76953125 0.12109375 24.76953125 1 22 C3.72265625 19.76171875 3.72265625 19.76171875 7.0625 17.6875 C8.16722656 16.99011719 9.27195312 16.29273437 10.41015625 15.57421875 C11.26480469 15.05472656 12.11945313 14.53523438 13 14 C9.62179247 10.40484337 6.04421291 8.06495218 1.828125 5.5625 C1.22484375 5.046875 0.6215625 4.53125 0 4 C0 2.68 0 1.36 0 0 Z " fill="#1ABDE7" transform="translate(79,83)"/>
<path d="M0 0 C3.12915801 2.6862618 4.7642676 5.95391929 6.6875 9.5625 C7.31011719 10.71878906 7.93273437 11.87507813 8.57421875 13.06640625 C10 16 10 16 10 18 C8.68 18 7.36 18 6 18 C4.35 15.03 2.7 12.06 1 9 C0.01 9.99 -0.98 10.98 -2 12 C-2 12.99 -2 13.98 -2 15 C-7.25714286 19 -7.25714286 19 -10 19 C-9.67 16.69 -9.34 14.38 -9 12 C-8.34 12 -7.68 12 -7 12 C-6.36771484 10.82630859 -6.36771484 10.82630859 -5.72265625 9.62890625 C-5.17480469 8.61699219 -4.62695312 7.60507812 -4.0625 6.5625 C-3.51722656 5.55316406 -2.97195312 4.54382812 -2.41015625 3.50390625 C-1 1 -1 1 0 0 Z " fill="#9574E5" transform="translate(75,56)"/>
<path d="M0 0 C3.12761531 3.12761531 4.17584708 7.17775845 5.78125 11.25 C6.83650896 14.07648457 6.83650896 14.07648457 9 16 C10.84854944 19.08091573 11 20.20027176 11 24 C11.66 24.33 12.32 24.66 13 25 C14.10546875 26.99609375 14.10546875 26.99609375 15.1875 29.4375 C15.55230469 30.24058594 15.91710937 31.04367188 16.29296875 31.87109375 C17 34 17 34 16 36 C14.68 35.34 13.36 34.68 12 34 C12 33.34 12 32.68 12 32 C10.515 32.495 10.515 32.495 9 33 C8.938125 32.030625 8.87625 31.06125 8.8125 30.0625 C8.36099497 26.68305324 7.18547006 24.35078343 5.4375 21.4375 C3.19213873 17.65684897 2.80746123 15.42839172 3 11 C2.02936517 8.65429915 1.03101947 6.31979381 0 4 C0 2.68 0 1.36 0 0 Z " fill="#1A2443" transform="translate(85,40)"/>
<path d="M0 0 C0.8353125 0.37125 0.8353125 0.37125 1.6875 0.75 C1.831875 1.8225 1.97625 2.895 2.125 4 C2.52499442 6.66662949 2.96341924 9.16399729 3.6875 11.75 C4.6775 11.75 5.6675 11.75 6.6875 11.75 C6.6875 12.41 6.6875 13.07 6.6875 13.75 C6.048125 13.853125 5.40875 13.95625 4.75 14.0625 C4.069375 14.289375 3.38875 14.51625 2.6875 14.75 C2.3575 15.74 2.0275 16.73 1.6875 17.75 C0.6975 18.08 -0.2925 18.41 -1.3125 18.75 C-1.45945312 17.82767578 -1.45945312 17.82767578 -1.609375 16.88671875 C-2.39182607 11.79255188 -2.39182607 11.79255188 -5.4375 7.875 C-6.05625 7.50375 -6.675 7.1325 -7.3125 6.75 C-7.3125 5.76 -7.3125 4.77 -7.3125 3.75 C-3.21493902 -0.34756098 -3.21493902 -0.34756098 0 0 Z " fill="#131C35" transform="translate(76.3125,81.25)"/>
<path d="M0 0 C0.99 0.33 1.98 0.66 3 1 C3 3.31 3 5.62 3 8 C2.34 8 1.68 8 1 8 C0.69707031 8.60328125 0.39414062 9.2065625 0.08203125 9.828125 C-4.38239538 18.34487734 -4.38239538 18.34487734 -9 21 C-11.8125 21.25 -11.8125 21.25 -14 21 C-14.33 19.68 -14.66 18.36 -15 17 C-13.96875 16.896875 -12.9375 16.79375 -11.875 16.6875 C-8.83093711 15.87533658 -8.0406194 15.0582417 -6.19921875 12.41796875 C-4.70825408 9.64598431 -3.30700286 6.86295865 -2 4 C-2.66 3.67 -3.32 3.34 -4 3 C-2.1875 1.4375 -2.1875 1.4375 0 0 Z " fill="#7A4EE8" transform="translate(55,92)"/>
<path d="M0 0 C0.99 0.33 1.98 0.66 3 1 C-2.61 11.56 -8.22 22.12 -14 33 C-14.33 33 -14.66 33 -15 33 C-15.40983607 24.80327869 -15.40983607 24.80327869 -12 21 C-11.28837557 19.35202764 -10.60968047 17.68834592 -10 16 C-9.34 16 -8.68 16 -8 16 C-7.896875 15.2575 -7.79375 14.515 -7.6875 13.75 C-6.95066203 10.8026481 -6.05200858 9.21616926 -4 7 C-3.34 7 -2.68 7 -2 7 C-2.04125 6.21625 -2.0825 5.4325 -2.125 4.625 C-2 2 -2 2 0 0 Z " fill="#0C4B65" transform="translate(70,37)"/>
<path d="M0 0 C3.0916909 2.52956528 3.90931332 5.22454612 5 9 C3.205625 9.2165625 3.205625 9.2165625 1.375 9.4375 C-5.95584057 10.99750287 -11.93604482 15.80784891 -18 20 C-18.33 18.68 -18.66 17.36 -19 16 C-17.35 15.67 -15.7 15.34 -14 15 C-13.67 14.01 -13.34 13.02 -13 12 C-12.34 12 -11.68 12 -11 12 C-10.67 11.34 -10.34 10.68 -10 10 C-9.21625 9.731875 -8.4325 9.46375 -7.625 9.1875 C-4.33288332 7.69820912 -3.62106522 6.16493685 -2 3 C-1.34 2.01 -0.68 1.02 0 0 Z " fill="#452C8A" transform="translate(75,64)"/>
<path d="M0 0 C0.66 0 1.32 0 2 0 C3.71441441 3.02723005 5.39142389 6.07366424 7.0625 9.125 C7.54783203 9.9809375 8.03316406 10.836875 8.53320312 11.71875 C12.04283955 18.19042 12.04283955 18.19042 11.80859375 22.6171875 C11.54175781 23.40351562 11.27492188 24.18984375 11 25 C8.33351629 21.66894651 6.3330319 18.12802152 4.3125 14.375 C3.68988281 13.22773437 3.06726563 12.08046875 2.42578125 10.8984375 C1 8 1 8 1 6 C0.01 6 -0.98 6 -2 6 C-1.34 4.02 -0.68 2.04 0 0 Z " fill="#27D0E3" transform="translate(95,72)"/>
<path d="M0 0 C2.9882675 2.58323124 4.49429547 5.55535237 6.25 9.0625 C6.79140625 10.12597656 7.3328125 11.18945312 7.890625 12.28515625 C8.25671875 13.18105469 8.6228125 14.07695313 9 15 C8.67 15.66 8.34 16.32 8 17 C4.46766245 15.82255415 4.13691925 15.04394359 2.3125 11.9375 C1.65701172 10.83728516 1.65701172 10.83728516 0.98828125 9.71484375 C0.66214844 9.14894531 0.33601563 8.58304688 0 8 C-1.485 10.475 -1.485 10.475 -3 13 C-3.66 12.34 -4.32 11.68 -5 11 C-4.74997427 6.49953685 -2.58245696 3.58211773 0 0 Z " fill="#2AE6EF" transform="translate(75,34)"/>
<path d="M0 0 C2.83188775 3.4505463 4.74503018 7.25962359 6.6875 11.25 C7.16799805 12.22453125 7.16799805 12.22453125 7.65820312 13.21875 C8.44247141 14.81069757 9.22174255 16.40510529 10 18 C9.34 18.33 8.68 18.66 8 19 C6.99466333 17.37829621 5.99588093 15.75252763 5 14.125 C4.443125 13.22007813 3.88625 12.31515625 3.3125 11.3828125 C2 9 2 9 2 7 C-1.11785113 7.64644661 -1.11785113 7.64644661 -2 10 C-2.66 10 -3.32 10 -4 10 C-4 11.32 -4 12.64 -4 14 C-4.66 14.66 -5.32 15.32 -6 16 C-7.03161608 17.98387708 -8.03523618 19.98276656 -9 22 C-9.66 22 -10.32 22 -11 22 C-9.48968084 16.73877829 -7.09625809 12.32767414 -4.375 7.625 C-3.95476562 6.88894531 -3.53453125 6.15289062 -3.1015625 5.39453125 C-2.07247236 3.5936235 -1.03689244 1.79642682 0 0 Z " fill="#175479" transform="translate(75,41)"/>
<path d="M0 0 C1 2 1 2 0.45507812 3.72412109 C-0.0022168 4.73853271 -0.0022168 4.73853271 -0.46875 5.7734375 C-0.95408203 6.8871875 -0.95408203 6.8871875 -1.44921875 8.0234375 C-2.14683085 9.58463633 -2.8473298 11.14454856 -3.55078125 12.703125 C-4.03611328 13.82074219 -4.03611328 13.82074219 -4.53125 14.9609375 C-4.98854492 15.97873291 -4.98854492 15.97873291 -5.45507812 17.01708984 C-6.10190494 19.37082076 -5.77348798 20.71591296 -5 23 C-7.64 23 -10.28 23 -13 23 C-11.50829734 18.0276578 -9.39542583 13.58154261 -7 9 C-6.34 9 -5.68 9 -5 9 C-3.35 6.03 -1.7 3.06 0 0 Z " fill="#1B95E6" transform="translate(46,90)"/>
<path d="M0 0 C5.13651819 4.67869809 9.24801664 11.40369355 10.3828125 18.33984375 C10.375 20.25 10.375 20.25 10 23 C8.02 23.66 6.04 24.32 4 25 C4.66 24.01 5.32 23.02 6 22 C5.72034148 16.99482962 3.73667736 12.98660774 1.4375 8.625 C1.10814453 7.98433594 0.77878906 7.34367187 0.43945312 6.68359375 C-0.36639482 5.11861368 -1.18218493 3.55875979 -2 2 C-1.34 2 -0.68 2 0 2 C0 1.34 0 0.68 0 0 Z " fill="#9583ED" transform="translate(83,49)"/>
<path d="M0 0 C0.66 0.33 1.32 0.66 2 1 C2 1.99 2 2.98 2 4 C4.72013915 5.97828302 7.6007701 7.27743881 10.6875 8.5625 C14 10 14 10 16 12 C16 13.32 16 14.64 16 16 C11.52434644 14.40827617 7.68437229 12.14414093 3.6875 9.625 C3.04232422 9.23828125 2.39714844 8.8515625 1.73242188 8.453125 C-0.11328125 7.2890625 -0.11328125 7.2890625 -3 5 C-3 3.68 -3 2.36 -3 1 C-2.01 0.67 -1.02 0.34 0 0 Z " fill="#804CF0" transform="translate(58,84)"/>
<path d="M0 0 C0.66 0 1.32 0 2 0 C0.50198917 3.95076246 -1.3051452 7.64896034 -3.2578125 11.39453125 C-3.56572723 11.98674973 -3.87364197 12.5789682 -4.19088745 13.18913269 C-5.16672209 15.06474541 -6.14580508 16.93863977 -7.125 18.8125 C-7.79058058 20.09038232 -8.45594737 21.368376 -9.12109375 22.64648438 C-10.74492487 25.76561506 -12.37167202 28.88321405 -14 32 C-14.33 32 -14.66 32 -15 32 C-14.67 29.36 -14.34 26.72 -14 24 C-13.34 24 -12.68 24 -12 24 C-11.896875 22.9275 -11.79375 21.855 -11.6875 20.75 C-11.02797801 17.15260731 -10.54223809 15.54223809 -8 13 C-7.34 13 -6.68 13 -6 13 C-5.87625 12.42636719 -5.7525 11.85273437 -5.625 11.26171875 C-4.97965546 8.92637821 -4.09995691 6.96793027 -3 4.8125 C-2.649375 4.11769531 -2.29875 3.42289062 -1.9375 2.70703125 C-1 1 -1 1 0 0 Z " fill="#0C2E5A" transform="translate(47,81)"/>
<path d="M0 0 C3.153498 0.70077733 6.08961104 1.5841351 9 3 C10.1577506 6.47325181 10.06866652 9.36067448 10 13 C8.375 13.6875 8.375 13.6875 6 14 C4 13 2 12 0 11 C-3.25100364 10.74803177 -3.25100364 10.74803177 -6 11 C-6 10.01 -6 9.02 -6 8 C0.46326465 7.54643757 3.60931587 8.40621058 9 12 C7.77760238 7.2462315 5.43066466 5.60043684 1.4609375 3.11328125 C0.97882813 2.74589844 0.49671875 2.37851563 0 2 C0 1.34 0 0.68 0 0 Z " fill="#261652" transform="translate(65,88)"/>
<path d="M0 0 C0.66 0 1.32 0 2 0 C2 1.32 2 2.64 2 4 C2.99 4.33 3.98 4.66 5 5 C5.72045764 6.9812585 6.38001259 8.98504093 7 11 C7.556875 11.86625 8.11375 12.7325 8.6875 13.625 C10 16 10 16 9.9375 18.0625 C8.29471243 21.45759431 5.96982637 23.39039485 2.8125 25.375 C-1.37588968 26.30575326 -4.9318788 25.15219119 -9 24 C-9 23.67 -9 23.34 -9 23 C-8.16855469 22.93941406 -7.33710937 22.87882812 -6.48046875 22.81640625 C-4.85044922 22.69072266 -4.85044922 22.69072266 -3.1875 22.5625 C-2.10855469 22.48128906 -1.02960938 22.40007812 0.08203125 22.31640625 C3.05989905 22.09787539 3.05989905 22.09787539 6 21 C6.36522269 14.41033462 6.36522269 14.41033462 3 9 C1.85478431 6.04410545 0.91421893 3.03442877 0 0 Z " fill="#071A2B" transform="translate(112,93)"/>
<path d="M0 0 C1.32 0.33 2.64 0.66 4 1 C3.1875 3.4375 3.1875 3.4375 2 6 C1.01 6.33 0.02 6.66 -1 7 C-1.6837045 8.32467746 -2.34964186 9.65863633 -3 11 C-6.52155964 13.34770643 -8.50771843 13.37669614 -12.6875 13.625 C-14.45673828 13.73714844 -14.45673828 13.73714844 -16.26171875 13.8515625 C-17.61716797 13.92503906 -17.61716797 13.92503906 -19 14 C-19 13.34 -19 12.68 -19 12 C-18.00419922 11.96132812 -18.00419922 11.96132812 -16.98828125 11.921875 C-11.49250098 11.56886138 -7.84500861 11.29736256 -4 7 C-2.51403751 4.71465835 -1.25971816 2.42612387 0 0 Z " fill="#1C133F" transform="translate(55,101)"/>
<path d="M0 0 C2.631724 2.45627573 4.81527263 4.55352037 6 8 C5.625 10.25 5.625 10.25 5 12 C-3.3150358 7.3627685 -3.3150358 7.3627685 -6 5 C-6 4.34 -6 3.68 -6 3 C-5.01 3 -4.02 3 -3 3 C-3 2.34 -3 1.68 -3 1 C-2.01 0.67 -1.02 0.34 0 0 Z " fill="#092D40" transform="translate(93,80)"/>
<path d="M0 0 C0.99 0 1.98 0 3 0 C3.33773437 0.71027344 3.67546875 1.42054687 4.0234375 2.15234375 C4.46945313 3.07144531 4.91546875 3.99054687 5.375 4.9375 C5.81585938 5.85402344 6.25671875 6.77054687 6.7109375 7.71484375 C7.79199162 10.12903802 7.79199162 10.12903802 10 11 C9.649375 10.2575 9.29875 9.515 8.9375 8.75 C7.95490707 5.8677274 7.9673198 4.78823655 9 2 C13.06153846 8.27692308 13.06153846 8.27692308 12.75 11.9375 C12.5025 12.618125 12.255 13.29875 12 14 C10.68 14.33 9.36 14.66 8 15 C6.66407203 12.6889639 5.33115569 10.37628245 4 8.0625 C3.6184375 7.40314453 3.236875 6.74378906 2.84375 6.06445312 C0 1.11328125 0 1.11328125 0 0 Z " fill="#3D2E7E" transform="translate(77,58)"/>
<path d="M0 0 C4.55564061 1.58532809 8.31475769 3.99003081 12.3125 6.625 C12.95767578 7.04523438 13.60285156 7.46546875 14.26757812 7.8984375 C15.84760724 8.92838241 17.42416047 9.96365628 19 11 C18.67 12.32 18.34 13.64 18 15 C18 14.01 18 13.02 18 12 C13.60746227 10.43727811 13.60746227 10.43727811 9 10 C6.73828125 8.828125 6.73828125 8.828125 4.3125 7.25 C3.50425781 6.73953125 2.69601563 6.2290625 1.86328125 5.703125 C1.24839844 5.14109375 0.63351563 4.5790625 0 4 C0 2.68 0 1.36 0 0 Z " fill="#27D3E4" transform="translate(79,83)"/>
<path d="M0 0 C0.33 0 0.66 0 1 0 C1.2226746 1.43534841 1.42761906 2.87345525 1.625 4.3125 C1.79902344 5.51326172 1.79902344 5.51326172 1.9765625 6.73828125 C2 9 2 9 0 12 C0.99 12.33 1.98 12.66 3 13 C-3.625 16.125 -3.625 16.125 -7 15 C-6.67 14.34 -6.34 13.68 -6 13 C-12.93 12.505 -12.93 12.505 -20 12 C-20 11.67 -20 11.34 -20 11 C-18.87980469 10.96261719 -17.75960937 10.92523438 -16.60546875 10.88671875 C-15.1327791 10.82105743 -13.66012434 10.75461014 -12.1875 10.6875 C-11.44951172 10.66494141 -10.71152344 10.64238281 -9.95117188 10.61914062 C-5.75998735 10.43012274 -5.75998735 10.43012274 -2.03125 8.6875 C-0.37127892 5.97118369 -0.29424257 3.11897124 0 0 Z " fill="#463F8D" transform="translate(93,66)"/>
<path d="M0 0 C0.99 0 1.98 0 3 0 C4.53378536 2.78473875 6.0497558 5.57878338 7.5625 8.375 C8.00013672 9.1690625 8.43777344 9.963125 8.88867188 10.78125 C9.29794922 11.54179688 9.70722656 12.30234375 10.12890625 13.0859375 C10.51119385 13.7876709 10.89348145 14.4894043 11.28735352 15.21240234 C11.52252686 15.80230957 11.7577002 16.3922168 12 17 C11.67 17.66 11.34 18.32 11 19 C9.10786631 16.61426621 7.97608217 14.92824652 7 12 C6.34 12.66 5.68 13.32 5 14 C1.93757784 9.15939723 0.46588495 5.70709064 0 0 Z " fill="#1BB3E4" transform="translate(105,92)"/>
<path d="M0 0 C0.66 0 1.32 0 2 0 C1.25141467 4.491512 0.43760011 7.6971749 -3 10.8125 C-5.58526288 13.64013127 -6.14911562 16.31283434 -7 20 C-7.66 20 -8.32 20 -9 20 C-9.33 22.31 -9.66 24.62 -10 27 C-10.33 27 -10.66 27 -11 27 C-10.59416845 19.83030929 -8.17805857 14.38527364 -5 8 C-4.67128906 7.32839844 -4.34257813 6.65679687 -4.00390625 5.96484375 C-3.34794505 4.6372285 -2.67644852 3.31729448 -2 2 C-1.34 2 -0.68 2 0 2 C0 1.34 0 0.68 0 0 Z " fill="#0A2239" transform="translate(42,85)"/>
<path d="M0 0 C0.33 0 0.66 0 1 0 C1.3692033 5.78418508 0.59122512 10.75681791 -2 16 C-4.6875 18.5625 -4.6875 18.5625 -7 20 C-7.78120054 13.88059574 -6.07331256 10.98882972 -2.41015625 6.11328125 C-1.01612181 4.02416038 -0.43719321 2.45160241 0 0 Z " fill="#082737" transform="translate(51,65)"/>
<path d="M0 0 C2.49552403 2.27597646 4.06622986 4.60721178 5.6875 7.5625 C6.12449219 8.34753906 6.56148437 9.13257812 7.01171875 9.94140625 C8 12 8 12 8 14 C6.68 14 5.36 14 4 14 C2.02 10.04 0.04 6.08 -2 2 C-1.34 2 -0.68 2 0 2 C0 1.34 0 0.68 0 0 Z " fill="#A76FED" transform="translate(77,60)"/>
<path d="M0 0 C0.66 0.28875 1.32 0.5775 2 0.875 C-0.31857824 2.03428912 -2.62314513 3.14762599 -5 4.1875 C-10.41627666 7.23415562 -12.35339029 11.04268073 -14 16.875 C-14.27821125 19.32640859 -14.48557345 21.78679765 -14.625 24.25 C-14.69976563 25.49523437 -14.77453125 26.74046875 -14.8515625 28.0234375 C-14.90054687 28.96445312 -14.94953125 29.90546875 -15 30.875 C-15.33 30.875 -15.66 30.875 -16 30.875 C-16.92143182 12.85588882 -16.92143182 12.85588882 -12.625 7.4609375 C-4.77637795 -0.19901575 -4.77637795 -0.19901575 0 0 Z " fill="#192831" transform="translate(34,18.125)"/>
<path d="M0 0 C4.72373854 1.62378512 8.94181834 4.10993018 13 7 C13 7.33 13 7.66 13 8 C10.69 8 8.38 8 6 8 C6 9.65 6 11.3 6 13 C4.68 12.67 3.36 12.34 2 12 C2.66 11.67 3.32 11.34 4 11 C4 9.02 4 7.04 4 5 C2.68 5.33 1.36 5.66 0 6 C0 4.02 0 2.04 0 0 Z " fill="#432588" transform="translate(53,88)"/>
<path d="M0 0 C2.475 0.99 2.475 0.99 5 2 C5 3.65 5 5.3 5 7 C6.134375 7.12375 7.26875 7.2475 8.4375 7.375 C9.613125 7.58125 10.78875 7.7875 12 8 C12.33 8.66 12.66 9.32 13 10 C6.375 10.125 6.375 10.125 3 9 C3.33 9.66 3.66 10.32 4 11 C1 10 1 10 -0.8125 7.1875 C-2 4 -2 4 -1.1875 1.625 C-0.795625 1.08875 -0.40375 0.5525 0 0 Z " fill="#1994DD" transform="translate(99,100)"/>
<path d="M0 0 C0.33 0 0.66 0 1 0 C0.57664615 6.49142565 -1.91099799 11.33492989 -5 17 C-6 14 -6 14 -5 11 C-6.32 13.31 -7.64 15.62 -9 18 C-9.33 17.34 -9.66 16.68 -10 16 C-8.78515625 13.1796875 -8.78515625 13.1796875 -7.0625 9.875 C-6.49660156 8.77929688 -5.93070313 7.68359375 -5.34765625 6.5546875 C-4.90292969 5.71164063 -4.45820312 4.86859375 -4 4 C-3.34 4 -2.68 4 -2 4 C-1.34 2.68 -0.68 1.36 0 0 Z " fill="#24AFE2" transform="translate(50,82)"/>
<path d="M0 0 C0.99 0 1.98 0 3 0 C3.66 2.31 4.32 4.62 5 7 C2.69 7 0.38 7 -2 7 C-2 7.66 -2 8.32 -2 9 C-2.66 9 -3.32 9 -4 9 C-4 9.66 -4 10.32 -4 11 C-4.66 10.67 -5.32 10.34 -6 10 C-5.67 9.01 -5.34 8.02 -5 7 C-4.34 7 -3.68 7 -3 7 C-3 5.68 -3 4.36 -3 3 C-2.34 3 -1.68 3 -1 3 C-0.67 2.01 -0.34 1.02 0 0 Z " fill="#143B58" transform="translate(74,48)"/>
<path d="M0 0 C2.80135827 2.80135827 3.81062644 6.17431411 5.1875 9.8125 C5.47302734 10.52470703 5.75855469 11.23691406 6.05273438 11.97070312 C7.58933406 16.012222 8.45188225 18.72827707 7 23 C3.99326639 19.33962865 3.25059474 16.6825647 2.5625 12.0625 C2.1094443 9.01682942 2.1094443 9.01682942 0.9375 6.375 C0 4 0 4 0 0 Z " fill="#203256" transform="translate(85,40)"/>
<path d="M0 0 C0.66 0.33 1.32 0.66 2 1 C2 1.66 2 2.32 2 3 C-0.3359375 4.7265625 -0.3359375 4.7265625 -3.375 6.625 C-4.37273437 7.25664063 -5.37046875 7.88828125 -6.3984375 8.5390625 C-9 10 -9 10 -11 10 C-10.80859375 7.6796875 -10.80859375 7.6796875 -10 5 C-7.78515625 3.3828125 -7.78515625 3.3828125 -5.0625 2.125 C-4.16660156 1.69445312 -3.27070312 1.26390625 -2.34765625 0.8203125 C-1.57292969 0.54960938 -0.79820313 0.27890625 0 0 Z " fill="#1A9EE2" transform="translate(90,100)"/>
<path d="M0 0 C0.33 0 0.66 0 1 0 C1.75 3.25 1.75 3.25 2 7 C0.53125 9.25 0.53125 9.25 -2 11 C-4.92336818 11.12914478 -7.38024615 11.0694249 -10.25 10.75 C-10.99507813 10.68425781 -11.74015625 10.61851563 -12.5078125 10.55078125 C-14.34035965 10.38632189 -16.17052655 10.19571111 -18 10 C-18 9.67 -18 9.34 -18 9 C-12.72 8.34 -7.44 7.68 -2 7 C-1.34 4.69 -0.68 2.38 0 0 Z " fill="#965BEB" transform="translate(91,66)"/>
<path d="M0 0 C0.98995103 2.67286779 1.04574968 3.85219333 0.1875 6.625 C-1 9 -1 9 -3 11 C-3.165 11.680625 -3.33 12.36125 -3.5 13.0625 C-3.7475 14.0215625 -3.7475 14.0215625 -4 15 C-4.99 15.495 -4.99 15.495 -6 16 C-6.72159424 17.64363134 -7.39351421 19.31050386 -8 21 C-8.671875 19.3359375 -8.671875 19.3359375 -9 17 C-7.890625 14.4140625 -7.890625 14.4140625 -6.25 11.625 C-5.69570313 10.66207031 -5.14140625 9.69914062 -4.5703125 8.70703125 C-3.79300781 7.36705078 -3.79300781 7.36705078 -3 6 C-1.96390751 4.01478628 -0.97966172 2.01374909 0 0 Z " fill="#0D3041" transform="translate(66,38)"/>
<path d="M0 0 C2.42449427 0.88163428 4.69491037 1.84745519 7 3 C6.34 3.66 5.68 4.32 5 5 C2.375 4.625 2.375 4.625 0 4 C0 3.34 0 2.68 0 2 C-0.928125 2.309375 -1.85625 2.61875 -2.8125 2.9375 C-4.875 3.625 -6.9375 4.3125 -9 5 C-8.625 2.5625 -8.625 2.5625 -8 0 C-5.08249759 -1.45875121 -3.14485878 -0.67830287 0 0 Z " fill="#161231" transform="translate(67,99)"/>
<path d="M0 0 C0.87823436 2.46129375 1.09761018 3.6936874 0.29296875 6.21875 C-0.07183594 6.9715625 -0.43664063 7.724375 -0.8125 8.5 C-1.16957031 9.2528125 -1.52664062 10.005625 -1.89453125 10.78125 C-4.12301587 15.25396825 -4.12301587 15.25396825 -5 17 C-5.66 17 -6.32 17 -7 17 C-7 17.66 -7 18.32 -7 19 C-7.66 19 -8.32 19 -9 19 C-7.6077541 14.37324343 -5.70479016 10.35313769 -3.375 6.125 C-2.74335937 4.97257812 -2.11171875 3.82015625 -1.4609375 2.6328125 C-0.97882812 1.76398438 -0.49671875 0.89515625 0 0 Z " fill="#114E72" transform="translate(63,63)"/>
<path d="M0 0 C3.02702828 2.72432545 5.09158433 4.96259703 6 9 C5.01 10.32 4.02 11.64 3 13 C1.35 9.37 -0.3 5.74 -2 2 C-1.34 2 -0.68 2 0 2 C0 1.34 0 0.68 0 0 Z " fill="#70A7E7" transform="translate(83,49)"/>
<path d="M0 0 C0.33 0.66 0.66 1.32 1 2 C2.65 1.67 4.3 1.34 6 1 C6.33 2.98 6.66 4.96 7 7 C5.02 6.34 3.04 5.68 1 5 C0.67 5.66 0.34 6.32 0 7 C-1.32 5.68 -2.64 4.36 -4 3 C-2.68 2.01 -1.36 1.02 0 0 Z " fill="#4B2793" transform="translate(64,83)"/>
<path d="M0 0 C0.99 0.33 1.98 0.66 3 1 C0.36 5.95 -2.28 10.9 -5 16 C-6.07349791 11.70600835 -5.79682816 10.80504787 -4 7 C-3.34 7 -2.68 7 -2 7 C-2.061875 5.824375 -2.061875 5.824375 -2.125 4.625 C-2 2 -2 2 0 0 Z " fill="#0C5973" transform="translate(70,37)"/>
<path d="M0 0 C0.66 0 1.32 0 2 0 C0.51095825 3.89608498 -1.24378713 7.59097018 -3.125 11.3125 C-3.66382813 12.38113281 -4.20265625 13.44976562 -4.7578125 14.55078125 C-5.37269531 15.76314453 -5.37269531 15.76314453 -6 17 C-7.23306978 14.07323092 -7.01493635 13.03773655 -5.8203125 10.01953125 C-5.26085938 8.96121094 -4.70140625 7.90289062 -4.125 6.8125 C-3.57070313 5.74644531 -3.01640625 4.68039063 -2.4453125 3.58203125 C-1 1 -1 1 0 0 Z " fill="#0A4165" transform="translate(47,81)"/>
<path d="M0 0 C0.66 0.66 1.32 1.32 2 2 C2.33 1.34 2.66 0.68 3 0 C3.66 0 4.32 0 5 0 C7 3 7 3 7 6 C4.69 5.67 2.38 5.34 0 5 C-0.5625 3.0625 -0.5625 3.0625 -1 1 C-0.67 0.67 -0.34 0.34 0 0 Z " fill="#064B7D" transform="translate(104,103)"/>
<path d="M0 0 C0.99 0 1.98 0 3 0 C2.67 1.65 2.34 3.3 2 5 C1.34 5 0.68 5 0 5 C-0.66 7.31 -1.32 9.62 -2 12 C-2.66 12 -3.32 12 -4 12 C-3.45660208 7.43545749 -2.20536179 4.0271824 0 0 Z " fill="#1C2861" transform="translate(50,90)"/>
<path d="M0 0 C0.99 0 1.98 0 3 0 C2.67 1.98 2.34 3.96 2 6 C1.34 6 0.68 6 0 6 C0 6.66 0 7.32 0 8 C-0.99 8 -1.98 8 -3 8 C-3 8.66 -3 9.32 -3 10 C-3.66 9.67 -4.32 9.34 -5 9 C-3.35 6.03 -1.7 3.06 0 0 Z " fill="#233E81" transform="translate(53,82)"/>
<path d="M0 0 C0.556875 0.226875 1.11375 0.45375 1.6875 0.6875 C0.6975 1.3475 -0.2925 2.0075 -1.3125 2.6875 C-2.50482613 4.73753955 -2.50482613 4.73753955 -3.3125 6.6875 C-5.2925 6.6875 -7.2725 6.6875 -9.3125 6.6875 C-7.70234959 2.442558 -4.80443663 -0.64924819 0 0 Z " fill="#372170" transform="translate(74.3125,78.3125)"/>
<path d="M0 0 C0.66 0 1.32 0 2 0 C-0.12444281 5.84221774 -3.11634784 11.1454348 -7 16 C-7 14.02 -7 12.04 -7 10 C-6.34 10 -5.68 10 -5 10 C-4.67 8.68 -4.34 7.36 -4 6 C-3.34 6 -2.68 6 -2 6 C-1.855625 5.195625 -1.71125 4.39125 -1.5625 3.5625 C-1 1 -1 1 0 0 Z " fill="#323076" transform="translate(72,57)"/>
<path d="M0 0 C2.31777287 2.84453943 3.89118681 5.48875822 5 9 C4.67 9.66 4.34 10.32 4 11 C1 10 1 10 -1 7 C-0.625 3.3125 -0.625 3.3125 0 0 Z " fill="#43CDE9" transform="translate(79,40)"/>
<path d="M0 0 C0.99 0.33 1.98 0.66 3 1 C1.43358249 5.30764815 -0.68336156 9.06171464 -3 13 C-3.93045933 10.44855176 -4.08564091 9.25993522 -3.22265625 6.640625 C-2.83980469 5.85171875 -2.45695312 5.0628125 -2.0625 4.25 C-1.68222656 3.45078125 -1.30195312 2.6515625 -0.91015625 1.828125 C-0.60980469 1.22484375 -0.30945312 0.6215625 0 0 Z " fill="#302174" transform="translate(50,95)"/>
<path d="M0 0 C0.66 0.33 1.32 0.66 2 1 C2 1.66 2 2.32 2 3 C0.37373596 4.38232443 -1.2925002 5.71937515 -3 7 C-0.03 8.98 -0.03 8.98 3 11 C2.01 11.495 2.01 11.495 1 12 C-0.98 10.68 -2.96 9.36 -5 8 C-4.64950425 4.75791433 -4.43778819 3.38472296 -1.9375 1.1875 C-1.298125 0.795625 -0.65875 0.40375 0 0 Z " fill="#8C53E9" transform="translate(64,80)"/>
<path d="M0 0 C1.32 0 2.64 0 4 0 C2.76736651 3.69790046 1.79947549 3.9354846 -1.5625 5.6875 C-2.80193359 6.34298828 -2.80193359 6.34298828 -4.06640625 7.01171875 C-4.70449219 7.33785156 -5.34257813 7.66398437 -6 8 C-6 6.68 -6 5.36 -6 4 C-4.35 3.67 -2.7 3.34 -1 3 C-0.67 2.01 -0.34 1.02 0 0 Z " fill="#332774" transform="translate(62,76)"/>
<path d="M0 0 C0.66 0 1.32 0 2 0 C1.63076923 6.4 1.63076923 6.4 -1.5625 9.4375 C-2.7690625 10.2109375 -2.7690625 10.2109375 -4 11 C-5 9 -5 9 -4.1875 6.4375 C-3 4 -3 4 -1 3 C-0.67 2.01 -0.34 1.02 0 0 Z " fill="#1D2A56" transform="translate(63,69)"/>
<path d="M0 0 C0.33 0.66 0.66 1.32 1 2 C0.67 2.99 0.34 3.98 0 5 C0.99 5 1.98 5 3 5 C3 5.99 3 6.98 3 8 C0.36 8 -2.28 8 -5 8 C-5 6 -5 6 -3.625 4.5625 C-3.08875 4.046875 -2.5525 3.53125 -2 3 C-1.34 2.01 -0.68 1.02 0 0 Z " fill="#1C77E8" transform="translate(38,105)"/>
<path d="M0 0 C0.99 0 1.98 0 3 0 C5.05257931 3.44833324 6.0632763 5.31661591 5.6875 9.375 C5.460625 10.24125 5.23375 11.1075 5 12 C1.66226291 8.35883227 1.02135098 4.71392758 0 0 Z " fill="#1EC8E9" transform="translate(101,85)"/>
<path d="M0 0 C0.99 0.33 1.98 0.66 3 1 C3 1.99 3 2.98 3 4 C3.99 4.33 4.98 4.66 6 5 C6.33 6.98 6.66 8.96 7 11 C6.34 11 5.68 11 5 11 C4.16151196 9.54462432 3.32936066 8.08559627 2.5 6.625 C1.80390625 5.40683594 1.80390625 5.40683594 1.09375 4.1640625 C0 2 0 2 0 0 Z " fill="#1C4970" transform="translate(82,44)"/>
<path d="M0 0 C0.66 0 1.32 0 2 0 C5.64232612 3.82444243 7.6393389 6.80474854 9 12 C6.47411298 9.63707344 5.11179163 8.33537489 4 5 C3.34 5.66 2.68 6.32 2 7 C0.5393715 4.35261084 0 3.10551666 0 0 Z " fill="#189DE0" transform="translate(108,99)"/>
<path d="M0 0 C3.09537351 1.06737018 3.98455997 1.97518567 5.75 4.8125 C6.94728978 7.86558893 7.28472808 9.77308179 7 13 C0 4.25 0 4.25 0 0 Z " fill="#084965" transform="translate(98,74)"/>
<path d="M0 0 C0 0.99 0 1.98 0 3 C-2.31 3.33 -4.62 3.66 -7 4 C-7.33 2.68 -7.66 1.36 -8 0 C-4.71303767 -0.79953138 -3.28976808 -1.09658936 0 0 Z " fill="#475FE7" transform="translate(48,109)"/>
<path d="M0 0 C2.31 0.66 4.62 1.32 7 2 C7.33 3.65 7.66 5.3 8 7 C4.59679258 5.98823563 3.24274669 5.35156418 1.1875 2.375 C0.795625 1.59125 0.40375 0.8075 0 0 Z " fill="#783EE3" transform="translate(66,93)"/>
<path d="M0 0 C0.99 0 1.98 0 3 0 C3.70180531 1.4096347 4.38593958 2.82807641 5.0625 4.25 C5.44535156 5.03890625 5.82820313 5.8278125 6.22265625 6.640625 C7.08564091 9.25993522 6.93045933 10.44855176 6 13 C4.99491199 11.21118264 3.99607264 9.41885304 3 7.625 C2.1646875 6.12839844 2.1646875 6.12839844 1.3125 4.6015625 C0 2 0 2 0 0 Z " fill="#084365" transform="translate(105,87)"/>
<path d="M0 0 C2.5722047 1.28610235 3.00974907 2.33393981 4 5 C3.625 7.25 3.625 7.25 3 9 C1.02 8.01 -0.96 7.02 -3 6 C-2.34 5.34 -1.68 4.68 -1 4 C-0.3574765 1.93125966 -0.3574765 1.93125966 0 0 Z " fill="#07364D" transform="translate(95,83)"/>
<path d="M0 0 C1.65 0 3.3 0 5 0 C8.22265625 5.078125 8.22265625 5.078125 9 7 C8.67 8.32 8.34 9.64 8 11 C6.35 8.03 4.7 5.06 3 2 C2.01 2.33 1.02 2.66 0 3 C0 2.01 0 1.02 0 0 Z " fill="#105E77" transform="translate(73,33)"/>
<path d="M0 0 C0.33 0.99 0.66 1.98 1 3 C-3.873261 4.5912689 -7.80790596 5.21192221 -13 5 C-13 4.34 -13 3.68 -13 3 C-11.96939453 2.92652344 -11.96939453 2.92652344 -10.91796875 2.8515625 C-9.56638672 2.73941406 -9.56638672 2.73941406 -8.1875 2.625 C-7.29417969 2.55539063 -6.40085937 2.48578125 -5.48046875 2.4140625 C-2.75601501 2.13354964 -2.75601501 2.13354964 0 0 Z " fill="#201B62" transform="translate(49,110)"/>
<path d="M0 0 C0.99 0 1.98 0 3 0 C1.55049545 3.7910119 -0.15172566 7.3874638 -2 11 C-2.33 11 -2.66 11 -3 11 C-3.39253254 6.55129785 -2.15305957 3.85756507 0 0 Z " fill="#0A4969" transform="translate(52,70)"/>
<path d="M0 0 C0.66 0 1.32 0 2 0 C2 1.32 2 2.64 2 4 C2.99 4.33 3.98 4.66 5 5 C5.73046875 6.84765625 5.73046875 6.84765625 6.1875 9.0625 C6.34605469 9.79597656 6.50460938 10.52945313 6.66796875 11.28515625 C6.83232422 12.13400391 6.83232422 12.13400391 7 13 C2.56398034 9.48177751 1.47966871 5.24609814 0 0 Z " fill="#082134" transform="translate(112,93)"/>
<path d="M0 0 C0 1.65 0 3.3 0 5 C-0.66 5 -1.32 5 -2 5 C-2 5.66 -2 6.32 -2 7 C-2.66 7 -3.32 7 -4 7 C-4.33 8.32 -4.66 9.64 -5 11 C-6 8 -6 8 -4.6875 4.375 C-2.5 0 -2.5 0 0 0 Z " fill="#173A5E" transform="translate(67,62)"/>
<path d="M0 0 C2.82249951 1.03491649 3.83374226 1.69915265 5.3125 4.375 C6.04361747 7.16653942 5.79596365 8.30861211 5 11 C4.16151196 9.54462432 3.32936066 8.08559627 2.5 6.625 C1.80390625 5.40683594 1.80390625 5.40683594 1.09375 4.1640625 C0 2 0 2 0 0 Z " fill="#083660" transform="translate(112,100)"/>
<path d="M0 0 C0.99 0.99 1.98 1.98 3 3 C2.34 3.66 1.68 4.32 1 5 C1.99 6.98 2.98 8.96 4 11 C1 10 1 10 -0.8125 7.1875 C-2 4 -2 4 -1.1875 1.625 C-0.795625 1.08875 -0.40375 0.5525 0 0 Z " fill="#20A8E2" transform="translate(99,100)"/>
<path d="M0 0 C2.66666667 0.66666667 5.33333333 1.33333333 8 2 C8 2.66 8 3.32 8 4 C7.34 4 6.68 4 6 4 C5.67 4.66 5.34 5.32 5 6 C3.2925002 4.71937515 1.62626404 3.38232443 0 2 C0 1.34 0 0.68 0 0 Z " fill="#341C6B" transform="translate(65,88)"/>
<path d="M0 0 C1.32 0.33 2.64 0.66 4 1 C4.144375 2.11375 4.28875 3.2275 4.4375 4.375 C4.78372035 7.82142047 4.78372035 7.82142047 6 10 C5.01 10 4.02 10 3 10 C2.01 6.7 1.02 3.4 0 0 Z " fill="#0E2B43" transform="translate(74,81)"/>
<path d="M0 0 C0 0.66 0 1.32 0 2 C-4.38430311 4.07036536 -4.38430311 4.07036536 -7.1875 3.75 C-9 3 -9 3 -11 1 C-7.26562152 0.12132271 -3.83225427 -0.08912219 0 0 Z " fill="#123D5C" transform="translate(90,81)"/>
<path d="M0 0 C0.33 0 0.66 0 1 0 C1.66 3.3 2.32 6.6 3 10 C2.01 9.67 1.02 9.34 0 9 C-1.3125 6.125 -1.3125 6.125 -2 3 C-1.34 2.01 -0.68 1.02 0 0 Z " fill="#2B2A65" transform="translate(84,59)"/>
<path d="M0 0 C0.33 0.66 0.66 1.32 1 2 C0.00390625 4.3828125 0.00390625 4.3828125 -1.4375 7.125 C-1.91058594 8.03507812 -2.38367187 8.94515625 -2.87109375 9.8828125 C-3.24363281 10.58148438 -3.61617187 11.28015625 -4 12 C-4.33 11.34 -4.66 10.68 -5 10 C-5.66 9.67 -6.32 9.34 -7 9 C-6.401875 8.443125 -5.80375 7.88625 -5.1875 7.3125 C-3.0136554 5.01443571 -1.53101917 2.75583451 0 0 Z " fill="#604BF2" transform="translate(53,99)"/>
<path d="M0 0 C1.65 0.99 3.3 1.98 5 3 C3.68 4.32 2.36 5.64 1 7 C0.34 6.34 -0.32 5.68 -1 5 C-0.625 2.375 -0.625 2.375 0 0 Z " fill="#07527A" transform="translate(88,93)"/>
<path d="M0 0 C0.8353125 0.556875 0.8353125 0.556875 1.6875 1.125 C-4.9375 4.25 -4.9375 4.25 -8.3125 3.125 C-7.3125 1.125 -7.3125 1.125 -5 -0.125 C-2.3125 -0.875 -2.3125 -0.875 0 0 Z " fill="#2D6598" transform="translate(94.3125,77.875)"/>
<path d="M0 0 C0.99 0 1.98 0 3 0 C3.66 2.97 4.32 5.94 5 9 C4.01 9.33 3.02 9.66 2 10 C1.855625 8.906875 1.71125 7.81375 1.5625 6.6875 C1.11711896 3.06877013 1.11711896 3.06877013 0 0 Z " fill="#292F67" transform="translate(92,63)"/>
<path d="M0 0 C0.66 0.33 1.32 0.66 2 1 C1.67 2.65 1.34 4.3 1 6 C1.66 6.33 2.32 6.66 3 7 C1.02 7 -0.96 7 -3 7 C-2.01 4.69 -1.02 2.38 0 0 Z " fill="#1B3883" transform="translate(42,102)"/>
<path d="M0 0 C0.33 0 0.66 0 1 0 C1.3125 2.25 1.3125 2.25 1 5 C-1.5 7.3125 -1.5 7.3125 -4 9 C-4 7.35 -4 5.7 -4 4 C-3.34 4 -2.68 4 -2 4 C-2 3.34 -2 2.68 -2 2 C-1.34 2 -0.68 2 0 2 C0 1.34 0 0.68 0 0 Z " fill="#092F47" transform="translate(48,76)"/>
<path d="M0 0 C0.66 0 1.32 0 2 0 C1.67 2.31 1.34 4.62 1 7 C-0.32 7.33 -1.64 7.66 -3 8 C-1.125 1.125 -1.125 1.125 0 0 Z " fill="#0A4158" transform="translate(60,53)"/>
<path d="M0 0 C1.32 0.33 2.64 0.66 4 1 C3.21625 1.763125 2.4325 2.52625 1.625 3.3125 C-1.07257717 5.90891805 -1.07257717 5.90891805 -3 9 C-3.66 8.67 -4.32 8.34 -5 8 C-3.35 5.36 -1.7 2.72 0 0 Z " fill="#2B1561" transform="translate(55,101)"/>
<path d="M0 0 C1.9375 0.6875 1.9375 0.6875 4 2 C4.75 4.625 4.75 4.625 5 7 C2.5625 6.25 2.5625 6.25 0 5 C-0.875 2.9375 -0.875 2.9375 -1 1 C-0.67 0.67 -0.34 0.34 0 0 Z " fill="#0F324B" transform="translate(97,69)"/>
<path d="M0 0 C0.99 0.66 1.98 1.32 3 2 C2.60196439 4.88575819 2.20990931 5.82189513 -0.0625 7.75 C-1.0215625 8.36875 -1.0215625 8.36875 -2 9 C-1.67 7.88625 -1.34 6.7725 -1 5.625 C0.088643 2.30540283 0.088643 2.30540283 0 0 Z " fill="#06293D" transform="translate(83,93)"/>
<path d="M0 0 C0.33 0 0.66 0 1 0 C1.20496094 0.62648438 1.40992187 1.25296875 1.62109375 1.8984375 C1.89050781 2.71570313 2.15992187 3.53296875 2.4375 4.375 C2.70433594 5.18710938 2.97117187 5.99921875 3.24609375 6.8359375 C3.95179729 9.01031799 3.95179729 9.01031799 5 11 C4.01 11 3.02 11 2 11 C-0.32590854 7.36576791 -0.16265833 4.22911669 0 0 Z " fill="#083A4E" transform="translate(78,82)"/>
<path d="M0 0 C0.66 0.33 1.32 0.66 2 1 C1.34 2.32 0.68 3.64 0 5 C-0.66 5 -1.32 5 -2 5 C-2 5.66 -2 6.32 -2 7 C-2.66 7 -3.32 7 -4 7 C-3.39816251 4.97954558 -2.72693904 2.97888961 -2 1 C-1.34 0.67 -0.68 0.34 0 0 Z " fill="#184071" transform="translate(58,75)"/>
<path d="M0 0 C0.99 0.66 1.98 1.32 3 2 C-1.43076923 5.07692308 -1.43076923 5.07692308 -4.3125 4.6875 C-4.869375 4.460625 -5.42625 4.23375 -6 4 C-5 2 -5 2 -2.625 0.75 C-1.75875 0.5025 -0.8925 0.255 0 0 Z " fill="#412782" transform="translate(70,72)"/>
<path d="M0 0 C0.66 0.33 1.32 0.66 2 1 C0.8125 3 0.8125 3 -1 5 C-3.6875 5.25 -3.6875 5.25 -6 5 C-5.195625 4.360625 -4.39125 3.72125 -3.5625 3.0625 C-1.7249496 1.59396498 -1.7249496 1.59396498 0 0 Z " fill="#07385D" transform="translate(87,105)"/>
<path d="M0 0 C0.33 0 0.66 0 1 0 C1.1875 2.875 1.1875 2.875 1 6 C0.01 6.66 -0.98 7.32 -2 8 C-2.99 7.34 -3.98 6.68 -5 6 C-3.35 5.34 -1.7 4.68 0 4 C0 2.68 0 1.36 0 0 Z " fill="#0B5F89" transform="translate(98,95)"/>
<path d="M0 0 C1.98 0.99 3.96 1.98 6 3 C6 3.33 6 3.66 6 4 C3.69 4 1.38 4 -1 4 C-0.67 2.68 -0.34 1.36 0 0 Z " fill="#361A74" transform="translate(60,92)"/>
<path d="M0 0 C1.65 0 3.3 0 5 0 C5.33 0.66 5.66 1.32 6 2 C5.01 2 4.02 2 3 2 C3.99 3.485 3.99 3.485 5 5 C2.525 4.01 2.525 4.01 0 3 C0 2.01 0 1.02 0 0 Z " fill="#8249E4" transform="translate(64,92)"/>
<path d="M0 0 C1.31471568 0.28151087 2.62675767 0.57553339 3.9375 0.875 C4.66839844 1.03742188 5.39929688 1.19984375 6.15234375 1.3671875 C8 2 8 2 9 4 C6.75 4.25 6.75 4.25 4 4 C1.6875 2 1.6875 2 0 0 Z " fill="#1AD5E7" transform="translate(81,86)"/>
<path d="M0 0 C0.99 1.32 1.98 2.64 3 4 C1.125 5.0625 1.125 5.0625 -1 6 C-1.66 5.67 -2.32 5.34 -3 5 C-2.01 3.35 -1.02 1.7 0 0 Z " fill="#0E7798" transform="translate(75,41)"/>
</svg>
